<svg width="317.059" xmlns="http://www.w3.org/2000/svg" height="96.148" id="screenshot-88d672e6-cf60-8022-8005-fbaf6c85d604" viewBox="0 0 317.059 96.148" xmlns:xlink="http://www.w3.org/1999/xlink" fill="none" version="1.1"><g xmlns:xlink="http://www.w3.org/1999/xlink" width="500" zoomAndPan="magnify" height="500" id="shape-88d672e6-cf60-8022-8005-fbaf6c85d604" preserveAspectRatio="xMidYMid meet" style="fill: rgb(0, 0, 0);" ry="0" rx="0" version="1.0"><g id="shape-88d672e6-cf60-8022-8005-fbaf6c8b3996" rx="0" ry="0" style="fill: rgb(0, 0, 0);"><g id="shape-88d672e6-cf60-8022-8005-fbaf6c8bc1e4" rx="0" ry="0" style="fill: rgb(0, 0, 0);"><g id="shape-88d672e6-cf60-8022-8005-fbaf6c8c37c4" rx="0" ry="0" style="fill: rgb(0, 0, 0);"><g id="shape-88d672e6-cf60-8022-8005-fbaf6c8d25a0"><g class="fills" id="fills-88d672e6-cf60-8022-8005-fbaf6c8d25a0"><path d="M110.676,27.324L110.676,46.292C110.676,50.242,111.270,53.042,112.457,54.699C113.645,56.355,115.664,57.183,118.520,57.183C121.371,57.183,123.395,56.355,124.582,54.699C125.778,53.042,126.379,50.242,126.379,46.292L126.379,27.324L140.129,27.324L140.129,49.636C140.129,56.273,138.403,61.058,134.957,63.996C131.520,66.925,126.039,68.386,118.520,68.386C111.008,68.386,105.528,66.925,102.082,63.996C98.633,61.058,96.910,56.273,96.910,49.636L96.910,27.324ZM110.676,27.324" style="fill: rgb(255, 255, 255); fill-opacity: 1;"/></g></g></g></g></g><g id="shape-88d672e6-cf60-8022-8005-fbaf6c8daa51" rx="0" ry="0" style="fill: rgb(0, 0, 0);"><g id="shape-88d672e6-cf60-8022-8005-fbaf6c8e1881" rx="0" ry="0" style="fill: rgb(0, 0, 0);"><g id="shape-88d672e6-cf60-8022-8005-fbaf6c8e7a0e" rx="0" ry="0" style="fill: rgb(0, 0, 0);"><g id="shape-88d672e6-cf60-8022-8005-fbaf6c8fbcce"><g class="fills" id="fills-88d672e6-cf60-8022-8005-fbaf6c8fbcce"><path d="M138.808,54.464L150.386,48.871C151.832,53.738,155.593,56.167,161.668,56.167C164.300,56.167,166.488,55.288,168.230,53.527C169.968,51.769,170.840,49.542,170.840,46.855C170.840,44.160,169.996,41.941,168.308,40.199C166.621,38.460,164.593,37.257,162.230,36.589C159.875,35.913,157.199,35.574,154.199,35.574C149.949,35.574,146.293,36.246,143.230,37.589L148.605,3.074L181.324,3.074L181.324,15.902L161.121,15.902L159.715,24.839C159.871,24.839,160.156,24.831,160.574,24.808C160.988,24.777,161.300,24.761,161.511,24.761C164.769,24.761,167.734,25.128,170.402,25.855C173.078,26.574,175.593,27.742,177.949,29.355C180.300,30.960,182.140,33.292,183.465,36.355C184.785,39.410,185.449,43.058,185.449,47.308C185.449,53.425,183.203,58.464,178.715,62.433C174.234,66.402,168.550,68.386,161.668,68.386C155.386,68.386,150.355,67.027,146.574,64.308C142.793,61.581,140.203,58.300,138.808,54.464ZZM138.808,54.464" style="fill: rgb(255, 255, 255); fill-opacity: 1;"/></g></g></g></g></g><g id="shape-88d672e6-cf60-8022-8005-fbaf6c901787" rx="0" ry="0" style="fill: rgb(0, 0, 0);"><g id="shape-88d672e6-cf60-8022-8005-fbaf6c9058da" rx="0" ry="0" style="fill: rgb(0, 0, 0);"><g id="shape-88d672e6-cf60-8022-8005-fbaf6c909263" rx="0" ry="0" style="fill: rgb(0, 0, 0);"><g id="shape-88d672e6-cf60-8022-8005-fbaf6c919648"><g class="fills" id="fills-88d672e6-cf60-8022-8005-fbaf6c919648"><path d="M225.634,49.183L196.712,49.183C196.712,51.976,197.618,54.050,199.431,55.402C201.243,56.746,203.212,57.417,205.337,57.417C207.564,57.417,209.325,57.121,210.618,56.527C211.919,55.933,213.400,54.753,215.056,52.980L225.009,57.964C220.860,64.913,213.970,68.386,204.337,68.386C198.314,68.386,193.153,66.324,188.853,62.199C184.548,58.074,182.400,53.113,182.400,47.308C182.400,41.507,184.548,36.535,188.853,32.386C193.153,28.242,198.314,26.167,204.337,26.167C210.657,26.167,215.798,27.996,219.759,31.652C223.728,35.300,225.712,40.519,225.712,47.308C225.712,48.246,225.685,48.871,225.634,49.183ZZM197.103,41.558L212.259,41.558C211.946,39.488,211.126,37.894,209.806,36.777C208.493,35.663,206.798,35.105,204.728,35.105C202.446,35.105,200.626,35.706,199.275,36.902C197.931,38.089,197.204,39.644,197.103,41.558ZZM197.103,41.558" style="fill: rgb(255, 255, 255); fill-opacity: 1;"/></g></g></g></g></g><g id="shape-88d672e6-cf60-8022-8005-fbaf6c91c6df" rx="0" ry="0" style="fill: rgb(0, 0, 0);"><g id="shape-88d672e6-cf60-8022-8005-fbaf6c9204bb" rx="0" ry="0" style="fill: rgb(0, 0, 0);"><g id="shape-88d672e6-cf60-8022-8005-fbaf6c927fb0" rx="0" ry="0" style="fill: rgb(0, 0, 0);"><g id="shape-88d672e6-cf60-8022-8005-fbaf6c93553f"><g class="fills" id="fills-88d672e6-cf60-8022-8005-fbaf6c93553f"><path d="M246.771,37.433C244.178,37.433,241.947,38.394,240.084,40.308C238.217,42.226,237.287,44.535,237.287,47.230C237.287,49.980,238.217,52.316,240.084,54.230C241.947,56.148,244.178,57.105,246.771,57.105C248.010,57.105,249.185,56.949,250.303,56.636C251.416,56.324,252.232,56.019,252.756,55.714L253.459,55.246L258.131,64.808C257.764,65.070,257.256,65.394,256.599,65.777C255.951,66.163,254.474,66.695,252.162,67.371C249.857,68.046,247.389,68.386,244.756,68.386C238.889,68.386,233.740,66.324,229.303,62.199C224.873,58.074,222.662,53.136,222.662,47.386C222.662,41.585,224.873,36.601,229.303,32.433C233.740,28.257,238.889,26.167,244.756,26.167C247.389,26.167,249.822,26.480,252.053,27.105C254.279,27.722,255.865,28.339,256.803,28.964L258.131,29.902L253.459,39.308C251.748,38.058,249.521,37.433,246.771,37.433ZZM246.771,37.433" style="fill: rgb(255, 255, 255); fill-opacity: 1;"/></g></g></g></g></g><g id="shape-88d672e6-cf60-8022-8005-fbaf6c939611" rx="0" ry="0" style="fill: rgb(0, 0, 0);"><g id="shape-88d672e6-cf60-8022-8005-fbaf6c93c4e8" rx="0" ry="0" style="fill: rgb(0, 0, 0);"><g id="shape-88d672e6-cf60-8022-8005-fbaf6c940087" rx="0" ry="0" style="fill: rgb(0, 0, 0);"><g id="shape-88d672e6-cf60-8022-8005-fbaf6c94db34"><g class="fills" id="fills-88d672e6-cf60-8022-8005-fbaf6c94db34"><path d="M270.094,27.324L270.094,46.292C270.094,50.242,270.687,53.042,271.875,54.699C273.062,56.355,275.082,57.183,277.937,57.183C280.789,57.183,282.812,56.355,284.000,54.699C285.195,53.042,285.797,50.242,285.797,46.292L285.797,27.324L299.547,27.324L299.547,49.636C299.547,56.273,297.820,61.058,294.375,63.996C290.937,66.925,285.457,68.386,277.937,68.386C270.426,68.386,264.945,66.925,261.500,63.996C258.051,61.058,256.328,56.273,256.328,49.636L256.328,27.324ZM270.094,27.324" style="fill: rgb(255, 255, 255); fill-opacity: 1;"/></g></g></g></g></g><g id="shape-88d672e6-cf60-8022-8005-fbaf6c957063"><g class="fills" id="fills-88d672e6-cf60-8022-8005-fbaf6c957063"><path d="M0.000,87.586L91.910,87.586" fill="none" stroke-linejoin="miter" stroke-miterlimit="4" style="fill: none;"/></g><g fill="none" stroke-linejoin="miter" stroke-miterlimit="4" id="strokes-88d672e6-cf60-8022-8005-fbaf6c957063" class="strokes"><g class="stroke-shape"><path d="M0.000,87.586L91.910,87.586" style="fill: none; stroke-width: 10; stroke: rgb(255, 255, 255); stroke-opacity: 1;"/></g></g></g><g id="shape-88d672e6-cf60-8022-8005-fbaf6c95fa0b"><g class="fills" id="fills-88d672e6-cf60-8022-8005-fbaf6c95fa0b"><path d="M5.437,0.000L5.437,89.770" fill="none" stroke-linejoin="miter" stroke-miterlimit="4" style="fill: none;"/></g><g fill="none" stroke-linejoin="miter" stroke-miterlimit="4" id="strokes-88d672e6-cf60-8022-8005-fbaf6c95fa0b" class="strokes"><g class="stroke-shape"><path d="M5.437,0.000L5.437,89.770" style="fill: none; stroke-width: 10; stroke: rgb(255, 255, 255); stroke-opacity: 1;"/></g></g></g><g id="shape-88d672e6-cf60-8022-8005-fbaf6c9621a0"><g class="fills" id="fills-88d672e6-cf60-8022-8005-fbaf6c9621a0"><path d="M317.059,8.562L225.145,8.562" fill="none" stroke-linejoin="miter" stroke-miterlimit="4" style="fill: none;"/></g><g fill="none" stroke-linejoin="miter" stroke-miterlimit="4" id="strokes-88d672e6-cf60-8022-8005-fbaf6c9621a0" class="strokes"><g class="stroke-shape"><path d="M317.059,8.562L225.145,8.562" style="fill: none; stroke-width: 10; stroke: rgb(255, 255, 255); stroke-opacity: 1;"/></g></g></g><g id="shape-88d672e6-cf60-8022-8005-fbaf6c965b8d"><g class="fills" id="fills-88d672e6-cf60-8022-8005-fbaf6c965b8d"><path d="M311.621,96.148L311.621,6.379" fill="none" stroke-linejoin="miter" stroke-miterlimit="4" style="fill: none;"/></g><g fill="none" stroke-linejoin="miter" stroke-miterlimit="4" id="strokes-88d672e6-cf60-8022-8005-fbaf6c965b8d" class="strokes"><g class="stroke-shape"><path d="M311.621,96.148L311.621,6.379" style="fill: none; stroke-width: 10; stroke: rgb(255, 255, 255); stroke-opacity: 1;"/></g></g></g><g id="shape-88d672e6-cf60-8022-8005-fbaf6c968463" rx="0" ry="0" style="fill: rgb(0, 0, 0);"><g id="shape-88d672e6-cf60-8022-8005-fbaf6c96c018" rx="0" ry="0" style="fill: rgb(0, 0, 0);"><g id="shape-88d672e6-cf60-8022-8005-fbaf6c96c019" rx="0" ry="0" style="fill: rgb(0, 0, 0);"><g id="shape-88d672e6-cf60-8022-8005-fbaf6c97466e"><g class="fills" id="fills-88d672e6-cf60-8022-8005-fbaf6c97466e"><path d="M52.043,12.877L67.902,12.877C75.504,12.877,82.004,15.479,87.402,20.674C92.808,25.873,95.512,32.389,95.512,40.221C95.512,48.096,92.824,54.635,87.449,59.830C82.074,65.030,75.558,67.627,67.902,67.627L52.043,67.627ZM64.512,56.487L66.433,56.487C70.996,56.487,74.722,54.952,77.621,51.877C80.515,48.795,81.984,44.932,82.027,40.284C82.027,35.639,80.578,31.768,77.683,28.674C74.785,25.580,71.035,24.034,66.433,24.034L64.512,24.034ZM64.512,56.487" style="fill: rgb(255, 255, 255); fill-opacity: 1;"/></g></g></g></g></g><g id="shape-88d672e6-cf60-8022-8005-fbaf6c97a427" clip-path="url(#render-30-62e9b9d207)" rx="0" ry="0" style="fill: rgb(0, 0, 0);"><defs><clipPath id="render-30-62e9b9d207" class="svg-def" transform="matrix(1.000000, 0.000000, 0.000000, 1.000000, -26.558593, -140.988281)"><path d="M 57.167969 177.695312 L 71.550781 177.695312 L 71.550781 187.28125 L 57.167969 187.28125 Z M 57.167969 177.695312" clip-rule="nonzero"/></clipPath></defs><g id="shape-88d672e6-cf60-8022-8005-fbaf6c989a57"><g class="fills" id="fills-88d672e6-cf60-8022-8005-fbaf6c989a57"><path d="M44.992,41.500C44.992,42.676,44.520,43.762,43.727,44.555C42.965,45.316,41.879,45.816,40.676,45.816C39.914,45.816,39.180,45.613,38.535,45.230C38.035,44.937,37.594,44.555,37.242,44.086L31.430,46.023L30.609,46.285L30.609,36.715L31.430,36.977L37.242,38.887C37.594,38.445,38.035,38.035,38.535,37.742C39.180,37.391,39.914,37.184,40.676,37.184C41.879,37.184,42.965,37.652,43.727,38.445C44.520,39.238,44.992,40.297,44.992,41.500ZZM42.848,43.672C43.406,43.117,43.758,42.352,43.758,41.500C43.758,40.648,43.406,39.887,42.848,39.328C42.289,38.770,41.527,38.418,40.676,38.418C40.117,38.418,39.621,38.562,39.148,38.828C38.680,39.094,38.301,39.473,38.035,39.945L37.770,40.383L37.301,40.207L37.008,40.121L31.871,38.418L31.871,44.555L37.008,42.879L37.301,42.762L37.770,42.617L38.035,43.027C38.301,43.496,38.680,43.879,39.148,44.172C39.621,44.406,40.117,44.555,40.676,44.555C41.527,44.555,42.289,44.230,42.848,43.672ZZM42.848,43.672" fill-rule="nonzero" style="fill: rgb(255, 255, 255); fill-opacity: 1;"/></g></g></g><g id="shape-88d672e6-cf60-8022-8005-fbaf6c990639" clip-path="url(#render-32-49b650b2c3)" rx="0" ry="0" style="fill: rgb(0, 0, 0);"><defs><clipPath id="render-32-49b650b2c3" class="svg-def" transform="matrix(1.000000, 0.000000, 0.000000, 1.000000, -26.558593, -140.988281)"><path d="M 63.648438 179.082031 L 70.484375 179.082031 L 70.484375 185.917969 L 63.648438 185.917969 Z M 63.648438 179.082031" clip-rule="nonzero"/></clipPath></defs><g id="shape-88d672e6-cf60-8022-8005-fbaf6c9970df" clip-path="url(#render-33-0fe7b63c3f)" rx="0" ry="0" style="fill: rgb(0, 0, 0);"><defs><clipPath id="render-33-0fe7b63c3f" class="svg-def" transform="matrix(1.000000, 0.000000, 0.000000, 1.000000, -26.558593, -140.988281)"><path d="M 67.066406 179.082031 C 65.179688 179.082031 63.648438 180.613281 63.648438 182.5 C 63.648438 184.386719 65.179688 185.917969 67.066406 185.917969 C 68.957031 185.917969 70.484375 184.386719 70.484375 182.5 C 70.484375 180.613281 68.957031 179.082031 67.066406 179.082031 Z M 67.066406 179.082031" clip-rule="nonzero"/></clipPath></defs><g id="shape-88d672e6-cf60-8022-8005-fbaf6c9984b7"><g class="fills" id="fills-88d672e6-cf60-8022-8005-fbaf6c9984b7"><path d="M37.090,38.094L43.926,38.094L43.926,44.930L37.090,44.930ZM37.090,38.094" fill-rule="nonzero" style="fill: rgb(255, 255, 255); fill-opacity: 1;"/></g></g></g></g><g id="shape-88d672e6-cf60-8022-8005-fbaf6c9a0124" clip-path="url(#render-35-23f8207b5a)" rx="0" ry="0" style="fill: rgb(0, 0, 0);"><defs><clipPath id="render-35-23f8207b5a" class="svg-def" transform="matrix(1.000000, 0.000000, 0.000000, 1.000000, -26.558593, -140.988281)"><path d="M 57.785156 177.695312 L 69.480469 177.695312 L 69.480469 186.128906 L 57.785156 186.128906 Z M 57.785156 177.695312" clip-rule="nonzero"/></clipPath></defs><g id="shape-88d672e6-cf60-8022-8005-fbaf6c9a0125" clip-path="url(#render-36-67fc9fea7c)" rx="0" ry="0" style="fill: rgb(0, 0, 0);"><defs><clipPath id="render-36-67fc9fea7c" class="svg-def" transform="matrix(1.000000, 0.000000, 0.000000, 1.000000, -26.558593, -140.988281)"><path d="M 69.480469 181.914062 L 57.808594 186.128906 L 57.808594 177.695312 Z M 69.480469 181.914062" clip-rule="nonzero"/></clipPath></defs><g id="shape-88d672e6-cf60-8022-8005-fbaf6c9a5933"><g class="fills" id="fills-88d672e6-cf60-8022-8005-fbaf6c9a5933"><path d="M42.922,36.707L42.922,45.141L31.262,45.141L31.262,36.707ZM42.922,36.707" fill-rule="nonzero" style="fill: rgb(255, 255, 255); fill-opacity: 1;"/></g></g></g></g><g id="shape-88d672e6-cf60-8022-8005-fbaf6c9abbd4" clip-path="url(#render-38-6125698787)" rx="0" ry="0" style="fill: rgb(0, 0, 0);"><defs><clipPath id="render-38-6125698787" class="svg-def" transform="matrix(1.000000, 0.000000, 0.000000, 1.000000, -26.558593, -140.988281)"><path d="M 42.855469 153.882812 L 54.90625 153.882812 L 54.90625 208.703125 L 42.855469 208.703125 Z M 42.855469 153.882812" clip-rule="nonzero"/></clipPath></defs><g id="shape-88d672e6-cf60-8022-8005-fbaf6c9aca84"><g class="fills" id="fills-88d672e6-cf60-8022-8005-fbaf6c9aca84"><path d="M16.297,12.895L28.348,12.895L28.348,67.699L16.297,67.699ZM16.297,12.895" fill-rule="nonzero" style="fill: rgb(255, 255, 255); fill-opacity: 1;"/></g></g></g><g id="shape-88d672e6-cf60-8022-8005-fbaf6c9aca85" clip-path="url(#render-40-456579c0cc)" rx="0" ry="0" style="fill: rgb(0, 0, 0);"><defs><clipPath id="render-40-456579c0cc" class="svg-def" transform="matrix(1.000000, 0.000000, 0.000000, 1.000000, -26.558593, -140.988281)"><path d="M 42.851562 197.695312 L 74.023438 197.695312 L 74.023438 208.699219 L 42.851562 208.699219 Z M 42.851562 197.695312" clip-rule="nonzero"/></clipPath></defs><g id="shape-88d672e6-cf60-8022-8005-fbaf6c9aca86"><g class="fills" id="fills-88d672e6-cf60-8022-8005-fbaf6c9aca86"><path d="M16.293,67.711L16.293,56.707L47.453,56.707L47.453,67.711ZM16.293,67.711" fill-rule="nonzero" style="fill: rgb(255, 255, 255); fill-opacity: 1;"/></g></g></g><g id="shape-88d672e6-cf60-8022-8005-fbaf6c9b0dca" clip-path="url(#render-42-e4f209de8e)" rx="0" ry="0" style="fill: rgb(0, 0, 0);"><defs><clipPath id="render-42-e4f209de8e" class="svg-def" transform="matrix(1.000000, 0.000000, 0.000000, 1.000000, -26.558593, -140.988281)"><path d="M 42.851562 153.878906 L 74.023438 153.878906 L 74.023438 164.878906 L 42.851562 164.878906 Z M 42.851562 153.878906" clip-rule="nonzero"/></clipPath></defs><g id="shape-88d672e6-cf60-8022-8005-fbaf6c9b50d1"><g class="fills" id="fills-88d672e6-cf60-8022-8005-fbaf6c9b50d1"><path d="M16.293,23.891L16.293,12.891L47.453,12.891L47.453,23.891ZM16.293,23.891" fill-rule="nonzero" style="fill: rgb(255, 255, 255); fill-opacity: 1;"/></g></g></g></g></svg>