<svg width="239.645" xmlns="http://www.w3.org/2000/svg" height="190.469" id="screenshot-88d672e6-cf60-8022-8005-fbaf6cebee70" viewBox="0 0 239.645 190.469" xmlns:xlink="http://www.w3.org/1999/xlink" fill="none" version="1.1"><g xmlns:xlink="http://www.w3.org/1999/xlink" width="500" zoomAndPan="magnify" height="500" id="shape-88d672e6-cf60-8022-8005-fbaf6cebee70" preserveAspectRatio="xMidYMid meet" style="fill: rgb(0, 0, 0);" ry="0" rx="0" version="1.0"><g id="shape-88d672e6-cf60-8022-8005-fbaf6ceebd6e"><g class="fills" id="fills-88d672e6-cf60-8022-8005-fbaf6ceebd6e"><path d="M239.645,3.535L90.840,3.535" fill="none" stroke-linejoin="miter" stroke-miterlimit="4" style="fill: none;"/></g><g fill="none" stroke-linejoin="miter" stroke-miterlimit="4" id="strokes-88d672e6-cf60-8022-8005-fbaf6ceebd6e" class="strokes"><g class="stroke-shape"><path d="M239.645,3.535L90.840,3.535" style="fill: none; stroke-width: 10; stroke: rgb(255, 255, 255); stroke-opacity: 1;"/></g></g></g><g id="shape-88d672e6-cf60-8022-8005-fbaf6ceee8c0"><g class="fills" id="fills-88d672e6-cf60-8022-8005-fbaf6ceee8c0"><path d="M230.840,145.332L230.840,0.000" fill="none" stroke-linejoin="miter" stroke-miterlimit="4" style="fill: none;"/></g><g fill="none" stroke-linejoin="miter" stroke-miterlimit="4" id="strokes-88d672e6-cf60-8022-8005-fbaf6ceee8c0" class="strokes"><g class="stroke-shape"><path d="M230.840,145.332L230.840,0.000" style="fill: none; stroke-width: 10; stroke: rgb(255, 255, 255); stroke-opacity: 1;"/></g></g></g><g id="shape-88d672e6-cf60-8022-8005-fbaf6cef3898" rx="0" ry="0" style="fill: rgb(0, 0, 0);"><g id="shape-88d672e6-cf60-8022-8005-fbaf6cef3899" rx="0" ry="0" style="fill: rgb(0, 0, 0);"><g id="shape-88d672e6-cf60-8022-8005-fbaf6cef74b4" rx="0" ry="0" style="fill: rgb(0, 0, 0);"><g id="shape-88d672e6-cf60-8022-8005-fbaf6cefe57f"><g class="fills" id="fills-88d672e6-cf60-8022-8005-fbaf6cefe57f"><path d="M123.515,43.259L153.437,43.259C167.800,43.259,180.070,48.165,190.249,57.978C200.437,67.790,205.531,80.083,205.531,94.853C205.531,109.720,200.456,122.056,190.312,131.869C180.175,141.673,167.882,146.572,153.437,146.572L123.515,146.572ZM147.046,125.540L150.687,125.540C159.281,125.540,166.312,122.642,171.781,116.837C177.249,111.037,180.023,103.751,180.109,94.978C180.109,86.220,177.374,78.915,171.906,73.072C166.437,67.228,159.363,64.306,150.687,64.306L147.046,64.306ZM147.046,125.540" style="fill: rgb(255, 255, 255); fill-opacity: 1;"/></g></g></g></g></g><g id="shape-88d672e6-cf60-8022-8005-fbaf6cf01886" clip-path="url(#render-8-0c9673c9b1)" rx="0" ry="0" style="fill: rgb(0, 0, 0);"><defs><clipPath id="render-8-0c9673c9b1" class="svg-def" transform="matrix(1.000000, 0.000000, 0.000000, 1.000000, -67.671875, -82.980439)"><path d="M 140.867188 170.386719 L 175.648438 170.386719 L 175.648438 193.574219 L 140.867188 193.574219 Z M 140.867188 170.386719" clip-rule="nonzero"/></clipPath></defs><g id="shape-88d672e6-cf60-8022-8005-fbaf6cf08fd8"><g class="fills" id="fills-88d672e6-cf60-8022-8005-fbaf6cf08fd8"><path d="M107.977,99.000C107.977,101.844,106.840,104.469,104.922,106.387C103.078,108.234,100.453,109.441,97.543,109.441C95.695,109.441,93.922,108.945,92.359,108.020C91.152,107.313,90.090,106.387,89.234,105.250L75.184,109.938L73.195,110.578L73.195,87.426L75.184,88.063L89.234,92.680C90.090,91.613,91.152,90.621,92.359,89.910C93.922,89.059,95.695,88.563,97.543,88.563C100.453,88.563,103.078,89.695,104.922,91.613C106.840,93.531,107.977,96.090,107.977,99.000ZZM102.793,104.258C104.141,102.906,104.992,101.063,104.992,99.000C104.992,96.941,104.141,95.094,102.793,93.746C101.445,92.395,99.598,91.543,97.543,91.543C96.191,91.543,94.984,91.898,93.852,92.539C92.715,93.176,91.793,94.102,91.152,95.238L90.516,96.301L89.379,95.875L88.668,95.664L76.246,91.543L76.246,106.387L88.668,102.340L89.379,102.055L90.516,101.699L91.152,102.695C91.793,103.832,92.715,104.754,93.852,105.465C94.984,106.031,96.191,106.387,97.543,106.387C99.598,106.387,101.445,105.605,102.793,104.258ZZM102.793,104.258" fill-rule="nonzero" style="fill: rgb(255, 255, 255); fill-opacity: 1;"/></g></g></g><g id="shape-88d672e6-cf60-8022-8005-fbaf6cf0ff6c" clip-path="url(#render-10-e37f135e1b)" rx="0" ry="0" style="fill: rgb(0, 0, 0);"><defs><clipPath id="render-10-e37f135e1b" class="svg-def" transform="matrix(1.000000, 0.000000, 0.000000, 1.000000, -67.671875, -82.980439)"><path d="M 156.539062 173.742188 L 173.074219 173.742188 L 173.074219 190.277344 L 156.539062 190.277344 Z M 156.539062 173.742188" clip-rule="nonzero"/></clipPath></defs><g id="shape-88d672e6-cf60-8022-8005-fbaf6cf13321" clip-path="url(#render-11-a4ba4ed302)" rx="0" ry="0" style="fill: rgb(0, 0, 0);"><defs><clipPath id="render-11-a4ba4ed302" class="svg-def" transform="matrix(1.000000, 0.000000, 0.000000, 1.000000, -67.671875, -82.980439)"><path d="M 164.808594 173.742188 C 160.242188 173.742188 156.539062 177.445312 156.539062 182.011719 C 156.539062 186.578125 160.242188 190.277344 164.808594 190.277344 C 169.375 190.277344 173.074219 186.578125 173.074219 182.011719 C 173.074219 177.445312 169.375 173.742188 164.808594 173.742188 Z M 164.808594 173.742188" clip-rule="nonzero"/></clipPath></defs><g id="shape-88d672e6-cf60-8022-8005-fbaf6cf150b8"><g class="fills" id="fills-88d672e6-cf60-8022-8005-fbaf6cf150b8"><path d="M88.867,90.762L105.402,90.762L105.402,107.297L88.867,107.297ZM88.867,90.762" fill-rule="nonzero" style="fill: rgb(255, 255, 255); fill-opacity: 1;"/></g></g></g></g><g id="shape-88d672e6-cf60-8022-8005-fbaf6cf150b9" clip-path="url(#render-13-27a118ddf6)" rx="0" ry="0" style="fill: rgb(0, 0, 0);"><defs><clipPath id="render-13-27a118ddf6" class="svg-def" transform="matrix(1.000000, 0.000000, 0.000000, 1.000000, -67.671875, -82.980439)"><path d="M 142.359375 170.390625 L 170.644531 170.390625 L 170.644531 190.785156 L 142.359375 190.785156 Z M 142.359375 170.390625" clip-rule="nonzero"/></clipPath></defs><g id="shape-88d672e6-cf60-8022-8005-fbaf6cf1b975" clip-path="url(#render-14-a826a328c4)" rx="0" ry="0" style="fill: rgb(0, 0, 0);"><defs><clipPath id="render-14-a826a328c4" class="svg-def" transform="matrix(1.000000, 0.000000, 0.000000, 1.000000, -67.671875, -82.980439)"><path d="M 170.644531 180.589844 L 142.414062 190.785156 L 142.414062 170.390625 Z M 170.644531 180.589844" clip-rule="nonzero"/></clipPath></defs><g id="shape-88d672e6-cf60-8022-8005-fbaf6cf1f7a3"><g class="fills" id="fills-88d672e6-cf60-8022-8005-fbaf6cf1f7a3"><path d="M102.973,87.410L102.973,107.805L74.770,107.805L74.770,87.410ZM102.973,87.410" fill-rule="nonzero" style="fill: rgb(255, 255, 255); fill-opacity: 1;"/></g></g></g></g><g id="shape-88d672e6-cf60-8022-8005-fbaf6cf1f7a4"><g class="fills" id="fills-88d672e6-cf60-8022-8005-fbaf6cf1f7a4"><path d="M0.000,186.934L148.805,186.934" fill="none" stroke-linejoin="miter" stroke-miterlimit="4" style="fill: none;"/></g><g fill="none" stroke-linejoin="miter" stroke-miterlimit="4" id="strokes-88d672e6-cf60-8022-8005-fbaf6cf1f7a4" class="strokes"><g class="stroke-shape"><path d="M0.000,186.934L148.805,186.934" style="fill: none; stroke-width: 10; stroke: rgb(255, 255, 255); stroke-opacity: 1;"/></g></g></g><g id="shape-88d672e6-cf60-8022-8005-fbaf6cf2150b"><g class="fills" id="fills-88d672e6-cf60-8022-8005-fbaf6cf2150b"><path d="M8.805,45.137L8.805,190.469" fill="none" stroke-linejoin="miter" stroke-miterlimit="4" style="fill: none;"/></g><g fill="none" stroke-linejoin="miter" stroke-miterlimit="4" id="strokes-88d672e6-cf60-8022-8005-fbaf6cf2150b" class="strokes"><g class="stroke-shape"><path d="M8.805,45.137L8.805,190.469" style="fill: none; stroke-width: 10; stroke: rgb(255, 255, 255); stroke-opacity: 1;"/></g></g></g><g id="shape-88d672e6-cf60-8022-8005-fbaf6cf256d6" clip-path="url(#render-18-445400b93d)" rx="0" ry="0" style="fill: rgb(0, 0, 0);"><defs><clipPath id="render-18-445400b93d" class="svg-def" transform="matrix(1.000000, 0.000000, 0.000000, 1.000000, -67.671875, -82.980439)"><path d="M 104.226562 112.199219 L 133.519531 112.199219 L 133.519531 245.4375 L 104.226562 245.4375 Z M 104.226562 112.199219" clip-rule="nonzero"/></clipPath></defs><g id="shape-88d672e6-cf60-8022-8005-fbaf6cf2a0bd"><g class="fills" id="fills-88d672e6-cf60-8022-8005-fbaf6cf2a0bd"><path d="M36.555,29.219L65.848,29.219L65.848,162.410L36.555,162.410ZM36.555,29.219" fill-rule="nonzero" style="fill: rgb(255, 255, 255); fill-opacity: 1;"/></g></g></g><g id="shape-88d672e6-cf60-8022-8005-fbaf6cf2a0be" clip-path="url(#render-20-34b9bd2c79)" rx="0" ry="0" style="fill: rgb(0, 0, 0);"><defs><clipPath id="render-20-34b9bd2c79" class="svg-def" transform="matrix(1.000000, 0.000000, 0.000000, 1.000000, -67.671875, -82.980439)"><path d="M 104.214844 218.679688 L 179.984375 218.679688 L 179.984375 245.421875 L 104.214844 245.421875 Z M 104.214844 218.679688" clip-rule="nonzero"/></clipPath></defs><g id="shape-88d672e6-cf60-8022-8005-fbaf6cf2fd2f"><g class="fills" id="fills-88d672e6-cf60-8022-8005-fbaf6cf2fd2f"><path d="M36.543,162.441L36.543,135.699L112.277,135.699L112.277,162.441ZM36.543,162.441" fill-rule="nonzero" style="fill: rgb(255, 255, 255); fill-opacity: 1;"/></g></g></g><g id="shape-88d672e6-cf60-8022-8005-fbaf6cf33458" clip-path="url(#render-22-23b761c5dd)" rx="0" ry="0" style="fill: rgb(0, 0, 0);"><defs><clipPath id="render-22-23b761c5dd" class="svg-def" transform="matrix(1.000000, 0.000000, 0.000000, 1.000000, -67.671875, -82.980439)"><path d="M 104.214844 112.183594 L 179.984375 112.183594 L 179.984375 138.921875 L 104.214844 138.921875 Z M 104.214844 112.183594" clip-rule="nonzero"/></clipPath></defs><g id="shape-88d672e6-cf60-8022-8005-fbaf6cf37c93"><g class="fills" id="fills-88d672e6-cf60-8022-8005-fbaf6cf37c93"><path d="M36.543,55.941L36.543,29.203L112.277,29.203L112.277,55.941ZM36.543,55.941" fill-rule="nonzero" style="fill: rgb(255, 255, 255); fill-opacity: 1;"/></g></g></g></g></svg>